<?xml version="1.0" encoding="UTF-8"?>
<svg xmlns="http://www.w3.org/2000/svg" xmlns:xlink="http://www.w3.org/1999/xlink" width="507pt" height="204.8pt" viewBox="0 0 507 204.8" version="1.1">
<defs>
<clipPath id="clip1">
  <path d="M 3 1 L 63 1 L 63 204.800781 L 3 204.800781 Z M 3 1 "/>
</clipPath>
</defs>
<g id="surface1">
<g clip-path="url(#clip1)" clip-rule="nonzero">
<path style=" stroke:none;fill-rule:nonzero;fill:rgb(65.499878%,66.299438%,67.098999%);fill-opacity:1;" d="M 62.398438 1.800781 L 44.800781 1.800781 L 44.800781 133.800781 C 44.800781 140.300781 44.300781 146.800781 43.101563 153.199219 C 42 159.699219 40 165.601563 37 171 C 34.101563 176.300781 29.898438 180.601563 24.398438 183.800781 C 18.898438 187.199219 12 189.101563 3.398438 189.398438 L 3.398438 204.800781 C 15.398438 204.5 25.699219 201.800781 34.5 196.699219 C 43.300781 191.5 50.199219 184.101563 55.101563 174.5 C 60 164.800781 62.398438 153.199219 62.398438 139.800781 L 62.398438 1.800781 "/>
</g>
<path style=" stroke:none;fill-rule:nonzero;fill:rgb(65.499878%,66.299438%,67.098999%);fill-opacity:1;" d="M 160.101563 1.800781 L 141.300781 1.800781 L 202.5 154.601563 L 211.800781 154.601563 L 239.601563 81.398438 L 268.699219 154.601563 L 277.898438 154.601563 L 336.101563 1.800781 L 318.699219 1.800781 L 273.898438 122.300781 L 248.398438 57.800781 L 269.699219 1.800781 L 252.300781 1.800781 L 239.800781 35.601563 L 226.300781 1.800781 L 207.699219 1.800781 L 230.898438 60 L 207.699219 122.300781 "/>
<path style=" stroke:none;fill-rule:nonzero;fill:rgb(65.499878%,66.299438%,67.098999%);fill-opacity:1;" d="M 392.101563 1.699219 L 392.101563 17.101563 L 440.699219 17.101563 L 440.699219 151 L 458.5 151 L 458.5 17.101563 L 507 17.101563 L 507 1.699219 "/>
<path style=" stroke:none;fill-rule:nonzero;fill:rgb(19.599915%,26.699829%,33.299255%);fill-opacity:1;" d="M 59.199219 0.199219 L 41.398438 0.199219 L 41.398438 132.101563 L 39.898438 151.601563 C 38.699219 158 36.601563 163.898438 33.601563 169.300781 C 30.699219 174.601563 26.601563 178.898438 21.199219 182.300781 C 15.601563 185.601563 8.601563 187.398438 0 187.699219 L 0 203.101563 C 12 202.800781 22.398438 200.101563 31.300781 195 C 40.101563 189.800781 46.898438 182.398438 51.699219 172.800781 C 56.601563 163.300781 59 151.699219 59.199219 138 L 59.199219 0.199219 "/>
<path style=" stroke:none;fill-rule:nonzero;fill:rgb(79.998779%,66.699219%,26.699829%);fill-opacity:1;" d="M 156.800781 0.199219 L 138.101563 0.199219 L 199.300781 152.898438 L 208.699219 152.898438 L 236.398438 79.699219 L 265.699219 152.898438 L 274.898438 152.898438 L 332.898438 0.199219 L 315.5 0.199219 L 270.699219 120.601563 L 245.398438 56.101563 L 266.699219 0.199219 L 249.300781 0.199219 L 236.601563 34 L 223.101563 0.199219 L 204.5 0.199219 L 227.601563 58.300781 L 204.5 120.601563 "/>
<path style=" stroke:none;fill-rule:nonzero;fill:rgb(73.298645%,13.299561%,27.099609%);fill-opacity:1;" d="M 388.699219 0 L 388.699219 15.398438 L 437.300781 15.398438 L 437.300781 149.398438 L 455.101563 149.398438 L 455.101563 15.398438 L 503.601563 15.398438 L 503.601563 0 "/>
</g>
</svg>
